<svg width="800" height="600" viewBox="0 0 800 600" xmlns="http://www.w3.org/2000/svg">
    <!-- Fundo -->
    <rect width="800" height="600" fill="#f8fafc" />
    
    <!-- Sidebar de navegação -->
    <rect width="220" height="600" fill="#ffffff" />
    <rect width="220" height="600" fill="#1e40af" opacity="0.05" />
    
    <!-- Logo na sidebar -->
    <rect x="30" y="30" width="160" height="40" rx="8" fill="#2563eb" opacity="0.9" />
    <text x="110" y="55" font-family="Arial" font-size="16" fill="white" text-anchor="middle" font-weight="bold">EDULEARN</text>
    
    <!-- Itens de menu -->
    <g opacity="0.8">
      <text x="60" y="125" font-family="Arial" font-size="14" fill="#64748b">Dashboard</text>
      <circle cx="35" cy="120" r="6" fill="#64748b" opacity="0.3" />
    </g>
    
    <g opacity="0.8">
      <text x="60" y="175" font-family="Arial" font-size="14" fill="#64748b">Meus Cursos</text>
      <circle cx="35" cy="170" r="6" fill="#64748b" opacity="0.3" />
    </g>
    
    <g opacity="0.8">
      <text x="60" y="225" font-family="Arial" font-size="14" fill="#64748b">Simulados</text>
      <circle cx="35" cy="220" r="6" fill="#64748b" opacity="0.3" />
    </g>
    
    <g>
      <rect x="20" y="250" width="180" height="40" rx="6" fill="#2563eb" opacity="0.1" />
      <text x="60" y="275" font-family="Arial" font-size="14" fill="#1e40af" font-weight="bold">Calendário</text>
      <circle cx="35" cy="270" r="6" fill="#2563eb" />
    </g>
    
    <g opacity="0.8">
      <text x="60" y="325" font-family="Arial" font-size="14" fill="#64748b">Ranking</text>
      <circle cx="35" cy="320" r="6" fill="#64748b" opacity="0.3" />
    </g>
    
    <!-- Perfil do usuário no rodapé da sidebar -->
    <circle cx="45" cy="540" r="20" fill="#94a3b8" />
    <text x="45" cy="540" font-family="Arial" font-size="14" fill="white" text-anchor="middle" dominant-baseline="middle">JD</text>
    <text x="115" y="535" font-family="Arial" font-size="14" fill="#334155" font-weight="bold">João Dias</text>
    <text x="115" y="555" font-family="Arial" font-size="12" fill="#64748b">Aluno</text>
    
    <!-- Header principal -->
    <rect x="220" y="0" width="580" height="70" fill="white" />
    <line x1="220" y1="70" x2="800" y2="70" stroke="#e2e8f0" stroke-width="1" />
    
    <text x="250" y="43" font-family="Arial" font-size="22" fill="#1e293b" font-weight="bold">Calendário de Aulas</text>
    
    <!-- Filtro do mês -->
    <rect x="580" y="20" width="170" height="30" rx="15" fill="#2563eb" opacity="0.1" />
    <text x="665" y="40" font-family="Arial" font-size="14" fill="#2563eb" text-anchor="middle" font-weight="bold">Abril 2025</text>
    
    <!-- Conteúdo principal - Calendário -->
    <rect x="245" y="90" width="530" height="490" rx="8" fill="white" stroke="#e2e8f0" stroke-width="1" />
    
    <!-- Dias da semana -->
    <rect x="245" y="90" width="530" height="40" rx="8" fill="#f8fafc" />
    
    <text x="284" y="115" font-family="Arial" font-size="14" fill="#64748b" text-anchor="middle" font-weight="bold">Dom</text>
    <text x="360" y="115" font-family="Arial" font-size="14" fill="#64748b" text-anchor="middle" font-weight="bold">Seg</text>
    <text x="436" y="115" font-family="Arial" font-size="14" fill="#64748b" text-anchor="middle" font-weight="bold">Ter</text>
    <text x="512" y="115" font-family="Arial" font-size="14" fill="#64748b" text-anchor="middle" font-weight="bold">Qua</text>
    <text x="588" y="115" font-family="Arial" font-size="14" fill="#64748b" text-anchor="middle" font-weight="bold">Qui</text>
    <text x="664" y="115" font-family="Arial" font-size="14" fill="#64748b" text-anchor="middle" font-weight="bold">Sex</text>
    <text x="740" y="115" font-family="Arial" font-size="14" fill="#64748b" text-anchor="middle" font-weight="bold">Sáb</text>
    
    <!-- Linhas de grade do calendário -->
    <line x1="322" y1="90" x2="322" y2="580" stroke="#e2e8f0" stroke-width="1" />
    <line x1="398" y1="90" x2="398" y2="580" stroke="#e2e8f0" stroke-width="1" />
    <line x1="474" y1="90" x2="474" y2="580" stroke="#e2e8f0" stroke-width="1" />
    <line x1="550" y1="90" x2="550" y2="580" stroke="#e2e8f0" stroke-width="1" />
    <line x1="626" y1="90" x2="626" y2="580" stroke="#e2e8f0" stroke-width="1" />
    <line x1="702" y1="90" x2="702" y2="580" stroke="#e2e8f0" stroke-width="1" />
    
    <line x1="245" y1="130" x2="775" y2="130" stroke="#e2e8f0" stroke-width="1" />
    <line x1="245" y1="200" x2="775" y2="200" stroke="#e2e8f0" stroke-width="1" />
    <line x1="245" y1="270" x2="775" y2="270" stroke="#e2e8f0" stroke-width="1" />
    <line x1="245" y1="340" x2="775" y2="340" stroke="#e2e8f0" stroke-width="1" />
    <line x1="245" y1="410" x2="775" y2="410" stroke="#e2e8f0" stroke-width="1" />
    <line x1="245" y1="480" x2="775" y2="480" stroke="#e2e8f0" stroke-width="1" />
    
    <!-- Dias do mês (números) -->
    
    <!-- Semana 1 -->
    <text x="284" y="155" font-family="Arial" font-size="14" fill="#94a3b8" text-anchor="middle">30</text>
    <text x="360" y="155" font-family="Arial" font-size="14" fill="#94a3b8" text-anchor="middle">31</text>
    <text x="436" y="155" font-family="Arial" font-size="14" fill="#1e293b" text-anchor="middle">1</text>
    <text x="512" y="155" font-family="Arial" font-size="14" fill="#1e293b" text-anchor="middle">2</text>
    <text x="588" y="155" font-family="Arial" font-size="14" fill="#1e293b" text-anchor="middle">3</text>
    <text x="664" y="155" font-family="Arial" font-size="14" fill="#1e293b" text-anchor="middle">4</text>
    <text x="740" y="155" font-family="Arial" font-size="14" fill="#1e293b" text-anchor="middle">5</text>
    
    <!-- Semana 2 -->
    <text x="284" y="225" font-family="Arial" font-size="14" fill="#1e293b" text-anchor="middle">6</text>
    <text x="360" y="225" font-family="Arial" font-size="14" fill="#1e293b" text-anchor="middle">7</text>
    <text x="436" y="225" font-family="Arial" font-size="14" fill="#1e293b" text-anchor="middle">8</text>
    <text x="512" y="225" font-family="Arial" font-size="14" fill="#1e293b" text-anchor="middle">9</text>
    <text x="588" y="225" font-family="Arial" font-size="14" fill="#1e293b" text-anchor="middle">10</text>
    <text x="664" y="225" font-family="Arial" font-size="14" fill="#1e293b" text-anchor="middle">11</text>
    <text x="740" y="225" font-family="Arial" font-size="14" fill="#1e293b" text-anchor="middle">12</text>
    
    <!-- Semana 3 -->
    <text x="284" y="295" font-family="Arial" font-size="14" fill="#1e293b" text-anchor="middle">13</text>
    
    <!-- Dia atual destacado -->
    <circle cx="360" cy="295" r="16" fill="#2563eb" />
    <text x="360" y="300" font-family="Arial" font-size="14" fill="white" text-anchor="middle" font-weight="bold">14</text>
    
    <text x="436" y="295" font-family="Arial" font-size="14" fill="#1e293b" text-anchor="middle">15</text>
    <text x="512" y="295" font-family="Arial" font-size="14" fill="#1e293b" text-anchor="middle">16</text>
    <text x="588" y="295" font-family="Arial" font-size="14" fill="#1e293b" text-anchor="middle">17</text>
    <text x="664" y="295" font-family="Arial" font-size="14" fill="#1e293b" text-anchor="middle">18</text>
    <text x="740" y="295" font-family="Arial" font-size="14" fill="#1e293b" text-anchor="middle">19</text>
    
    <!-- Semana 4 -->
    <text x="284" y="365" font-family="Arial" font-size="14" fill="#1e293b" text-anchor="middle">20</text>
    <text x="360" y="365" font-family="Arial" font-size="14" fill="#1e293b" text-anchor="middle">21</text>
    <text x="436" y="365" font-family="Arial" font-size="14" fill="#1e293b" text-anchor="middle">22</text>
    <text x="512" y="365" font-family="Arial" font-size="14" fill="#1e293b" text-anchor="middle">23</text>
    <text x="588" y="365" font-family="Arial" font-size="14" fill="#1e293b" text-anchor="middle">24</text>
    <text x="664" y="365" font-family="Arial" font-size="14" fill="#1e293b" text-anchor="middle">25</text>
    <text x="740" y="365" font-family="Arial" font-size="14" fill="#1e293b" text-anchor="middle">26</text>
    
    <!-- Semana 5 -->
    <text x="284" y="435" font-family="Arial" font-size="14" fill="#1e293b" text-anchor="middle">27</text>
    <text x="360" y="435" font-family="Arial" font-size="14" fill="#1e293b" text-anchor="middle">28</text>
    <text x="436" y="435" font-family="Arial" font-size="14" fill="#1e293b" text-anchor="middle">29</text>
    <text x="512" y="435" font-family="Arial" font-size="14" fill="#1e293b" text-anchor="middle">30</text>
    <text x="588" y="435" font-family="Arial" font-size="14" fill="#94a3b8" text-anchor="middle">1</text>
    <text x="664" y="435" font-family="Arial" font-size="14" fill="#94a3b8" text-anchor="middle">2</text>
    <text x="740" y="435" font-family="Arial" font-size="14" fill="#94a3b8" text-anchor="middle">3</text>
    
    <!-- Eventos do calendário -->
    
    <!-- Aula ao vivo (dia 4) -->
    <rect x="636" y="160" width="56" height="25" rx="4" fill="#ef4444" opacity="0.1" />
    <text x="664" y="177" font-family="Arial" font-size="10" fill="#ef4444" text-anchor="middle">Aula ao vivo</text>
    
    <!-- Simulado (dia 9) -->
    <rect x="484" y="160" width="56" height="25" rx="4" fill="#f59e0b" opacity="0.1" />
    <text x="512" y="177" font-family="Arial" font-size="10" fill="#f59e0b" text-anchor="middle">Simulado</text>
    
    <!-- Aula ao vivo (dia 11) -->
    <rect x="636" y="230" width="56" height="25" rx="4" fill="#ef4444" opacity="0.1" />
    <text x="664" y="247" font-family="Arial" font-size="10" fill="#ef4444" text-anchor="middle">Aula ao vivo</text>
    
    <!-- Simulado hoje (dia 14) -->
    <rect x="332" y="310" width="56" height="25" rx="4" fill="#f59e0b" opacity="0.1" />
    <text x="360" y="327" font-family="Arial" font-size="10" fill="#f59e0b" text-anchor="middle">Simulado</text>
    
    <!-- Aula ao vivo (dia 14) -->
    <rect x="332" y="340" width="56" height="25" rx="4" fill="#ef4444" opacity="0.1" />
    <text x="360" y="357" font-family="Arial" font-size="10" fill="#ef4444" text-anchor="middle">Aula ao vivo</text>
    
    <!-- Aula ao vivo (dia 18) -->
    <rect x="636" y="310" width="56" height="25" rx="4" fill="#ef4444" opacity="0.1" />
    <text x="664" y="327" font-family="Arial" font-size="10" fill="#ef4444" text-anchor="middle">Aula ao vivo</text>
    
    <!-- Simulado (dia 23) -->
    <rect x="484" y="380" width="56" height="25" rx="4" fill="#f59e0b" opacity="0.1" />
    <text x="512" y="397" font-family="Arial" font-size="10" fill="#f59e0b" text-anchor="middle">Simulado</text>
    
    <!-- Aula ao vivo (dia 25) -->
    <rect x="636" y="380" width="56" height="25" rx="4" fill="#ef4444" opacity="0.1" />
    <text x="664" y="397" font-family="Arial" font-size="10" fill="#ef4444" text-anchor="middle">Aula ao vivo</text>
    
    <!-- Legenda -->
    <rect x="245" y="550" width="15" height="15" rx="3" fill="#ef4444" opacity="0.1" />
    <text x="270" y="562" font-family="Arial" font-size="12" fill="#64748b">Aula ao vivo</text>
    
    <rect x="345" y="550" width="15" height="15" rx="3" fill="#f59e0b" opacity="0.1" />
    <text x="370" y="562" font-family="Arial" font-size="12" fill="#64748b">Simulado</text>
    
    <rect x="445" y="550" width="15" height="15" rx="3" fill="#2563eb" opacity="0.1" />
    <text x="470" y="562" font-family="Arial" font-size="12" fill="#64748b">Entrega de redação</text>
  </svg>