<svg width="800" height="600" viewBox="0 0 800 600" xmlns="http://www.w3.org/2000/svg">
    <!-- Fundo -->
    <rect width="800" height="600" fill="#f8fafc" />
    
    <!-- Sidebar de navegação -->
    <rect width="220" height="600" fill="#ffffff" />
    <rect width="220" height="600" fill="#1e40af" opacity="0.05" />
    
    <!-- Logo na sidebar -->
    <rect x="30" y="30" width="160" height="40" rx="8" fill="#2563eb" opacity="0.9" />
    <text x="110" y="55" font-family="Arial" font-size="16" fill="white" text-anchor="middle" font-weight="bold">EDULEARN</text>
    
    <!-- Itens de menu -->
    <g>
      <rect x="20" y="100" width="180" height="40" rx="6" fill="#2563eb" opacity="0.1" />
      <text x="60" y="125" font-family="Arial" font-size="14" fill="#1e40af" font-weight="bold">Dashboard</text>
      <circle cx="35" cy="120" r="6" fill="#2563eb" />
    </g>
    
    <g opacity="0.8">
      <text x="60" y="175" font-family="Arial" font-size="14" fill="#64748b">Meus Cursos</text>
      <circle cx="35" cy="170" r="6" fill="#64748b" opacity="0.3" />
    </g>
    
    <g opacity="0.8">
      <text x="60" y="225" font-family="Arial" font-size="14" fill="#64748b">Simulados</text>
      <circle cx="35" cy="220" r="6" fill="#64748b" opacity="0.3" />
    </g>
    
    <g opacity="0.8">
      <text x="60" y="275" font-family="Arial" font-size="14" fill="#64748b">Calendário</text>
      <circle cx="35" cy="270" r="6" fill="#64748b" opacity="0.3" />
    </g>
    
    <g opacity="0.8">
      <text x="60" y="325" font-family="Arial" font-size="14" fill="#64748b">Ranking</text>
      <circle cx="35" cy="320" r="6" fill="#64748b" opacity="0.3" />
    </g>
    
    <!-- Perfil do usuário no rodapé da sidebar -->
    <circle cx="45" cy="540" r="20" fill="#94a3b8" />
    <text x="45" cy="540" font-family="Arial" font-size="14" fill="white" text-anchor="middle" dominant-baseline="middle">JD</text>
    <text x="115" y="535" font-family="Arial" font-size="14" fill="#334155" font-weight="bold">João Dias</text>
    <text x="115" y="555" font-family="Arial" font-size="12" fill="#64748b">Aluno</text>
    
    <!-- Header principal -->
    <rect x="220" y="0" width="580" height="70" fill="white" />
    <line x1="220" y1="70" x2="800" y2="70" stroke="#e2e8f0" stroke-width="1" />
    
    <text x="250" y="43" font-family="Arial" font-size="22" fill="#1e293b" font-weight="bold">Dashboard</text>
    
    <!-- Ícones de notificação e busca -->
    <circle cx="750" cy="35" r="15" fill="#f1f5f9" />
    <circle cx="710" cy="35" r="15" fill="#f1f5f9" />
    
    <!-- Conteúdo principal -->
    <!-- Seção de boas-vindas -->
    <rect x="245" y="95" width="530" height="70" rx="8" fill="#2563eb" opacity="0.05" />
    <text x="275" y="125" font-family="Arial" font-size="18" fill="#1e293b" font-weight="bold">Bem-vindo de volta, João!</text>
    <text x="275" y="150" font-family="Arial" font-size="14" fill="#64748b">Continue aprendendo de onde parou</text>
    
    <!-- Métricas -->
    <rect x="245" y="185" width="160" height="100" rx="8" fill="white" stroke="#e2e8f0" stroke-width="1" />
    <text x="265" y="215" font-family="Arial" font-size="12" fill="#64748b">Progresso Total</text>
    <text x="265" y="245" font-family="Arial" font-size="24" fill="#1e293b" font-weight="bold">68%</text>
    <rect x="265" y="260" width="120" height="8" rx="4" fill="#f1f5f9" />
    <rect x="265" y="260" width="82" height="8" rx="4" fill="#2563eb" />
    
    <rect x="425" y="185" width="160" height="100" rx="8" fill="white" stroke="#e2e8f0" stroke-width="1" />
    <text x="445" y="215" font-family="Arial" font-size="12" fill="#64748b">Simulados</text>
    <text x="445" y="245" font-family="Arial" font-size="24" fill="#1e293b" font-weight="bold">7/12</text>
    <rect x="445" y="260" width="120" height="8" rx="4" fill="#f1f5f9" />
    <rect x="445" y="260" width="70" height="8" rx="4" fill="#10b981" />
    
    <rect x="605" y="185" width="160" height="100" rx="8" fill="white" stroke="#e2e8f0" stroke-width="1" />
    <text x="625" y="215" font-family="Arial" font-size="12" fill="#64748b">Posição Ranking</text>
    <text x="625" y="245" font-family="Arial" font-size="24" fill="#1e293b" font-weight="bold">#14</text>
    <text x="625" y="270" font-family="Arial" font-size="12" fill="#10b981">↑ 3 posições</text>
    
    <!-- Cursos em andamento -->
    <text x="245" y="325" font-family="Arial" font-size="18" fill="#1e293b" font-weight="bold">Cursos em andamento</text>
    
    <!-- Card de curso 1 -->
    <rect x="245" y="345" width="320" height="120" rx="8" fill="white" stroke="#e2e8f0" stroke-width="1" />
    <rect x="245" y="345" width="6" height="120" rx="3" fill="#2563eb" />
    <text x="265" y="375" font-family="Arial" font-size="16" fill="#1e293b" font-weight="bold">Matemática para o ENEM</text>
    <text x="265" y="395" font-family="Arial" font-size="12" fill="#64748b">Aula 8 de 12 - Álgebra II</text>
    <rect x="265" y="415" width="280" height="6" rx="3" fill="#f1f5f9" />
    <rect x="265" y="415" width="187" height="6" rx="3" fill="#2563eb" />
    <text x="265" y="440" font-family="Arial" font-size="12" fill="#64748b">Progresso: 67%</text>
    <rect x="455" y="430" width="90" height="30" rx="6" fill="#2563eb" />
    <text x="500" y="450" font-family="Arial" font-size="12" fill="white" text-anchor="middle">Continuar</text>
    
    <!-- Card de curso 2 -->
    <rect x="245" y="480" width="320" height="120" rx="8" fill="white" stroke="#e2e8f0" stroke-width="1" />
    <rect x="245" y="480" width="6" height="120" rx="3" fill="#10b981" />
    <text x="265" y="510" font-family="Arial" font-size="16" fill="#1e293b" font-weight="bold">Redação Nota 1000</text>
    <text x="265" y="530" font-family="Arial" font-size="12" fill="#64748b">Aula 4 de 9 - Dissertação</text>
    <rect x="265" y="550" width="280" height="6" rx="3" fill="#f1f5f9" />
    <rect x="265" y="550" width="124" height="6" rx="3" fill="#10b981" />
    <text x="265" y="575" font-family="Arial" font-size="12" fill="#64748b">Progresso: 44%</text>
    <rect x="455" y="565" width="90" height="30" rx="6" fill="#10b981" />
    <text x="500" y="585" font-family="Arial" font-size="12" fill="white" text-anchor="middle">Continuar</text>
    
    <!-- Próximas aulas -->
    <rect x="585" y="345" width="180" height="255" rx="8" fill="white" stroke="#e2e8f0" stroke-width="1" />
    <text x="605" y="375" font-family="Arial" font-size="16" fill="#1e293b" font-weight="bold">Próximas Aulas</text>
    
    <text x="605" y="405" font-family="Arial" font-size="12" fill="#64748b">Hoje</text>
    <line x1="605" y1="415" x2="765" y2="415" stroke="#e2e8f0" stroke-width="1" />
    
    <text x="605" y="435" font-family="Arial" font-size="14" fill="#1e293b" font-weight="bold">Física - Mecânica</text>
    <text x="605" y="455" font-family="Arial" font-size="12" fill="#64748b">19:00 - 20:30 • Ao vivo</text>
    <rect x="715" y="435" width="40" height="20" rx="10" fill="#ef4444" opacity="0.1" />
    <text x="735" y="450" font-family="Arial" font-size="10" fill="#ef4444" text-anchor="middle">LIVE</text>
    
    <text x="605" y="485" font-family="Arial" font-size="12" fill="#64748b">Amanhã</text>
    <line x1="605" y1="495" x2="765" y2="495" stroke="#e2e8f0" stroke-width="1" />
    
    <text x="605" y="515" font-family="Arial" font-size="14" fill="#1e293b" font-weight="bold">Química Orgânica</text>
    <text x="605" y="535" font-family="Arial" font-size="12" fill="#64748b">15:00 - 16:30</text>
    
    <text x="605" y="565" font-family="Arial" font-size="14" fill="#1e293b" font-weight="bold">Simulado ENEM</text>
    <text x="605" y="585" font-family="Arial" font-size="12" fill="#64748b">19:00 - 22:00</text>
    <rect x="700" y="565" width="55" height="20" rx="10" fill="#f59e0b" opacity="0.1" />
    <text x="728" y="580" font-family="Arial" font-size="10" fill="#f59e0b" text-anchor="middle">SIMULADO</text>
  </svg>