<svg width="800" height="600" viewBox="0 0 800 600" xmlns="http://www.w3.org/2000/svg">
    <!-- Fundo -->
    <rect width="800" height="600" fill="#f8fafc" />
    
    <!-- Sidebar de navegação -->
    <rect width="220" height="600" fill="#ffffff" />
    <rect width="220" height="600" fill="#1e40af" opacity="0.05" />
    
    <!-- Logo na sidebar -->
    <rect x="30" y="30" width="160" height="40" rx="8" fill="#2563eb" opacity="0.9" />
    <text x="110" y="55" font-family="Arial" font-size="16" fill="white" text-anchor="middle" font-weight="bold">EDULEARN</text>
    
    <!-- Itens de menu -->
    <g opacity="0.8">
      <text x="60" y="125" font-family="Arial" font-size="14" fill="#64748b">Dashboard</text>
      <circle cx="35" cy="120" r="6" fill="#64748b" opacity="0.3" />
    </g>
    
    <g>
      <rect x="20" y="150" width="180" height="40" rx="6" fill="#2563eb" opacity="0.1" />
      <text x="60" y="175" font-family="Arial" font-size="14" fill="#1e40af" font-weight="bold">Meus Cursos</text>
      <circle cx="35" cy="170" r="6" fill="#2563eb" />
    </g>
    
    <g opacity="0.8">
      <text x="60" y="225" font-family="Arial" font-size="14" fill="#64748b">Simulados</text>
      <circle cx="35" cy="220" r="6" fill="#64748b" opacity="0.3" />
    </g>
    
    <g opacity="0.8">
      <text x="60" y="275" font-family="Arial" font-size="14" fill="#64748b">Calendário</text>
      <circle cx="35" cy="270" r="6" fill="#64748b" opacity="0.3" />
    </g>
    
    <g opacity="0.8">
      <text x="60" y="325" font-family="Arial" font-size="14" fill="#64748b">Ranking</text>
      <circle cx="35" cy="320" r="6" fill="#64748b" opacity="0.3" />
    </g>
    
    <!-- Aulas do módulo na sidebar -->
    <text x="30" y="370" font-family="Arial" font-size="14" fill="#1e293b" font-weight="bold">AULAS DO MÓDULO</text>
    
    <rect x="30" y="385" width="160" height="30" rx="4" fill="white" stroke="#e2e8f0" stroke-width="1" />
    <circle cx="45" cy="400" r="6" fill="#10b981" />
    <text x="60" y="405" font-family="Arial" font-size="12" fill="#64748b">7: Equações 2° Grau</text>
    
    <rect x="30" y="420" width="160" height="30" rx="4" fill="#2563eb" opacity="0.1" />
    <circle cx="45" cy="435" r="6" fill="#2563eb" />
    <text x="60" y="440" font-family="Arial" font-size="12" fill="#1e293b" font-weight="bold">8: Funções</text>
    
    <rect x="30" y="455" width="160" height="30" rx="4" fill="white" stroke="#e2e8f0" stroke-width="1" opacity="0.7" />
    <circle cx="45" cy="470" r="6" fill="#94a3b8" />
    <text x="60" y="475" font-family="Arial" font-size="12" fill="#94a3b8">9: Gráficos de Funções</text>
    
    <!-- Perfil do usuário no rodapé da sidebar -->
    <circle cx="45" cy="540" r="20" fill="#94a3b8" />
    <text x="45" cy="540" font-family="Arial" font-size="14" fill="white" text-anchor="middle" dominant-baseline="middle">JD</text>
    <text x="115" y="535" font-family="Arial" font-size="14" fill="#334155" font-weight="bold">João Dias</text>
    <text x="115" y="555" font-family="Arial" font-size="12" fill="#64748b">Aluno</text>
    
    <!-- Header principal -->
    <rect x="220" y="0" width="580" height="70" fill="white" />
    <line x1="220" y1="70" x2="800" y2="70" stroke="#e2e8f0" stroke-width="1" />
    
    <text x="250" y="30" font-family="Arial" font-size="14" fill="#64748b">Matemática para o ENEM > Álgebra II</text>
    <text x="250" y="55" font-family="Arial" font-size="22" fill="#1e293b" font-weight="bold">Aula 8: Funções</text>
    
    <!-- Ícones de notificação e busca -->
    <circle cx="750" cy="35" r="15" fill="#f1f5f9" />
    <circle cx="710" cy="35" r="15" fill="#f1f5f9" />
    
    <!-- Conteúdo principal - Player de vídeo -->
    <rect x="245" y="90" width="530" height="300" rx="8" fill="#0f172a" />
    <rect x="370" y="210" width="60" height="60" rx="30" fill="white" opacity="0.8" />
    <polygon points="410,210 450,240 410,270" fill="#0f172a" />
    
    <!-- Controles do vídeo -->
    <rect x="245" y="400" width="530" height="40" rx="4" fill="white" stroke="#e2e8f0" stroke-width="1" />
    <rect x="255" y="415" width="400" height="10" rx="5" fill="#f1f5f9" />
    <rect x="255" y="415" width="180" height="10" rx="5" fill="#2563eb" />
    <circle cx="435" cy="420" r="6" fill="#2563eb" />
    <text x="665" y="425" font-family="Arial" font-size="14" fill="#64748b">12:45 / 28:30</text>
    
    <!-- Materiais complementares -->
    <text x="245" y="470" font-family="Arial" font-size="18" fill="#1e293b" font-weight="bold">Materiais Complementares</text>
    
    <rect x="245" y="490" width="255" height="80" rx="8" fill="white" stroke="#e2e8f0" stroke-width="1" />
    <rect x="265" y="510" width="40" height="40" rx="4" fill="#ef4444" opacity="0.1" />
    <text x="285" y="535" font-family="Arial" font-size="18" fill="#ef4444" text-anchor="middle">PDF</text>
    <text x="320" y="520" font-family="Arial" font-size="16" fill="#1e293b" font-weight="bold">Lista de Exercícios</text>
    <text x="320" y="540" font-family="Arial" font-size="12" fill="#64748b">12 páginas • 2.4 MB</text>
    
    <rect x="520" y="490" width="255" height="80" rx="8" fill="white" stroke="#e2e8f0" stroke-width="1" />
    <rect x="540" y="510" width="40" height="40" rx="4" fill="#2563eb" opacity="0.1" />
    <text x="560" y="535" font-family="Arial" font-size="18" fill="#2563eb" text-anchor="middle">DOC</text>
    <text x="595" y="520" font-family="Arial" font-size="16" fill="#1e293b" font-weight="bold">Resumo da Aula</text>
    <text x="595" y="540" font-family="Arial" font-size="12" fill="#64748b">5 páginas • 1.1 MB</text>
    
    <!-- Navegação entre aulas -->
    <rect x="245" y="590" width="255" height="50" rx="6" fill="white" stroke="#e2e8f0" stroke-width="1" />
    <text x="265" y="620" font-family="Arial" font-size="14" fill="#64748b">Aula Anterior</text>
    <text x="265" y="640" font-family="Arial" font-size="12" fill="#1e293b" font-weight="bold">Equações do 2° Grau</text>
    <polygon points="470,615 450,625 470,635" fill="#64748b" />
    
    <rect x="520" y="590" width="255" height="50" rx="6" fill="#2563eb" opacity="0.1" />
    <text x="680" y="620" font-family="Arial" font-size="14" fill="#2563eb" text-align="right" text-anchor="end">Próxima Aula</text>
    <text x="680" y="640" font-family="Arial" font-size="12" fill="#1e293b" font-weight="bold" text-align="right" text-anchor="end">Gráficos de Funções</text>
    <polygon points="705,615 725,625 705,635" fill="#2563eb" />
    
    <!-- Marcador de progresso -->
    <rect x="370" y="370" width="280" height="20" rx="10" fill="#10b981" opacity="0.1" />
    <text x="510" y="385" font-family="Arial" font-size="12" fill="#10b981" text-anchor="middle">45% da aula concluída</text>
  </svg>